<svg width="28.000000" height="28.000000" viewBox="0 0 28 28" fill="none" xmlns="http://www.w3.org/2000/svg" xmlns:xlink="http://www.w3.org/1999/xlink">
	<desc>
			Created with Pixso.
	</desc>
	<defs/>
	<rect id="Icon/phone" width="28.000000" height="28.000000" transform="translate(-0.000061 -0.199951) rotate(0.000000)" fill="#FFFFFF" fill-opacity="0"/>
	<path id="Path 16" d="M14.86 21.27L17.95 18.18C18.29 17.83 18.83 17.78 19.23 18.06L23.65 21.14C24.16 21.5 24.22 22.23 23.78 22.67L23 23.45C22.29 24.16 21.27 24.47 20.31 24.17C17.97 23.44 13.4 21.65 9.63 17.88C5.87 14.12 4.07 9.55 3.34 7.2C3.05 6.24 3.35 5.22 4.06 4.51L4.84 3.73C5.28 3.29 6.01 3.36 6.37 3.87L9.45 8.29C9.73 8.68 9.68 9.22 9.34 9.57L6.25 12.66L14.86 21.27Z" fill="#D8D8D8" fill-opacity="0" fill-rule="evenodd"/>
	<path id="Path 16" d="M14.86 21.27L17.95 18.18C18.29 17.83 18.83 17.78 19.23 18.06L23.65 21.14C24.16 21.5 24.22 22.23 23.78 22.67L23 23.45C22.29 24.16 21.27 24.47 20.31 24.17C17.97 23.44 13.4 21.65 9.63 17.88C5.87 14.12 4.07 9.55 3.34 7.2C3.05 6.24 3.35 5.22 4.06 4.51L4.84 3.73C5.28 3.29 6.01 3.36 6.37 3.87L9.45 8.29C9.73 8.68 9.68 9.22 9.34 9.57L6.25 12.66L14.86 21.27Z" fill="#FFFFFF" fill-opacity="1.000000" fill-rule="evenodd"/>
</svg>
