<svg width="30.000000" height="30.000000" viewBox="0 0 30 30" fill="none" xmlns="http://www.w3.org/2000/svg" xmlns:xlink="http://www.w3.org/1999/xlink">
	<desc>
			Created with Pixso.
	</desc>
	<defs>
		<clipPath id="clip1_1289">
			<rect id="instagram 1" width="30.000000" height="30.000000" transform="translate(-0.000061 -0.572754) rotate(0.000000)" fill="white" fill-opacity="0"/>
		</clipPath>
	</defs>
	<rect id="instagram 1" width="30.000000" height="30.000000" transform="translate(-0.000061 -0.572754) rotate(0.000000)" fill="#FFFFFF" fill-opacity="0"/>
	<g clip-path="url(#clip1_1289)">
		<path id="Vector" d="M9.59 1.22C5.29 1.22 1.79 4.72 1.79 9.02L1.79 19.82C1.79 24.12 5.29 27.62 9.59 27.62L20.39 27.62C24.7 27.62 28.19 24.12 28.19 19.82L28.19 9.02C28.19 4.72 24.7 1.22 20.39 1.22L9.59 1.22ZM9.59 2.42L20.39 2.42C24.05 2.42 26.99 5.37 26.99 9.02L26.99 19.82C26.99 23.47 24.05 26.42 20.39 26.42L9.59 26.42C5.94 26.42 2.99 23.47 2.99 19.82L2.99 9.02C2.99 5.37 5.94 2.42 9.59 2.42ZM22.19 6.02C21.88 6.02 21.57 6.15 21.35 6.37C21.12 6.6 20.99 6.9 20.99 7.22C20.99 7.54 21.12 7.85 21.35 8.07C21.57 8.3 21.88 8.42 22.19 8.42C22.51 8.42 22.82 8.3 23.04 8.07C23.27 7.85 23.39 7.54 23.39 7.22C23.39 6.9 23.27 6.6 23.04 6.37C22.82 6.15 22.51 6.02 22.19 6.02ZM14.99 7.82C11.36 7.82 8.39 10.78 8.39 14.42C8.39 18.06 11.36 21.02 14.99 21.02C18.63 21.02 21.59 18.06 21.59 14.42C21.59 10.78 18.63 7.82 14.99 7.82ZM14.99 9.02C17.98 9.02 20.39 11.43 20.39 14.42C20.39 17.41 17.98 19.82 14.99 19.82C12.01 19.82 9.59 17.41 9.59 14.42C9.59 11.43 12.01 9.02 14.99 9.02Z" fill="#FFFFFF" fill-opacity="1.000000" fill-rule="nonzero"/>
	</g>
</svg>
