<svg width="30.000000" height="30.000000" viewBox="0 0 30 30" fill="none" xmlns="http://www.w3.org/2000/svg" xmlns:xlink="http://www.w3.org/1999/xlink">
	<desc>
			Created with Pixso.
	</desc>
	<defs>
		<clipPath id="clip1_1284">
			<rect id="icons8-twitter 1" width="30.000000" height="30.000000" transform="translate(-0.000061 -0.572754) rotate(0.000000)" fill="white" fill-opacity="0"/>
		</clipPath>
	</defs>
	<rect id="icons8-twitter 1" width="30.000000" height="30.000000" transform="translate(-0.000061 -0.572754) rotate(0.000000)" fill="#FFFFFF" fill-opacity="0"/>
	<g clip-path="url(#clip1_1284)">
		<path id="Vector" d="M20.53 2.7C16.94 2.7 14.02 5.62 14.02 9.21C14.02 9.43 14.07 9.64 14.09 9.85C9.66 9.42 5.73 7.29 3.07 4.02C2.95 3.86 2.75 3.77 2.55 3.79C2.35 3.8 2.17 3.92 2.08 4.09C1.52 5.05 1.19 6.16 1.19 7.35C1.19 8.79 1.71 10.11 2.51 11.2C2.35 11.13 2.18 11.09 2.04 11.01C1.85 10.91 1.63 10.92 1.45 11.02C1.27 11.13 1.16 11.33 1.16 11.53L1.16 11.61C1.16 13.82 2.3 15.74 3.99 16.92C3.97 16.91 3.95 16.92 3.93 16.92C3.73 16.88 3.52 16.95 3.38 17.11C3.24 17.27 3.2 17.49 3.26 17.68C3.93 19.77 5.64 21.36 7.76 21.94C6.07 22.94 4.11 23.53 2 23.53C1.54 23.53 1.11 23.51 0.67 23.46C0.39 23.42 0.12 23.59 0.03 23.85C-0.07 24.12 0.03 24.42 0.28 24.57C2.98 26.3 6.2 27.32 9.65 27.32C15.25 27.32 19.64 24.98 22.59 21.64C25.53 18.3 27.07 13.96 27.07 9.9C27.07 9.73 27.06 9.57 27.05 9.4C28.15 8.56 29.13 7.57 29.9 6.42C30.05 6.19 30.04 5.9 29.86 5.69C29.69 5.48 29.39 5.42 29.15 5.53C28.84 5.67 28.48 5.69 28.16 5.8C28.58 5.23 28.95 4.61 29.17 3.92C29.24 3.69 29.16 3.43 28.97 3.27C28.77 3.12 28.5 3.1 28.29 3.23C27.26 3.84 26.13 4.26 24.93 4.52C23.77 3.43 22.24 2.7 20.53 2.7ZM20.53 3.9C22.06 3.9 23.44 4.56 24.41 5.59C24.55 5.74 24.77 5.8 24.97 5.76C25.75 5.61 26.5 5.38 27.22 5.08C26.8 5.65 26.29 6.13 25.68 6.49C25.41 6.62 25.28 6.94 25.38 7.23C25.48 7.52 25.78 7.68 26.08 7.62C26.68 7.54 27.21 7.3 27.78 7.15C27.27 7.7 26.71 8.2 26.09 8.65C25.93 8.77 25.84 8.97 25.85 9.17C25.86 9.42 25.87 9.66 25.87 9.9C25.87 13.65 24.43 17.72 21.69 20.83C18.95 23.95 14.92 26.12 9.65 26.12C7.26 26.12 5 25.59 2.96 24.66C5.49 24.47 7.82 23.57 9.71 22.09C9.9 21.93 9.98 21.67 9.9 21.43C9.82 21.19 9.6 21.03 9.35 21.02C7.37 20.99 5.72 19.84 4.83 18.21C4.87 18.21 4.89 18.21 4.93 18.21C5.52 18.21 6.11 18.13 6.65 17.98C6.91 17.91 7.09 17.66 7.08 17.39C7.08 17.12 6.88 16.88 6.61 16.82C4.48 16.39 2.88 14.65 2.51 12.49C3.11 12.7 3.73 12.86 4.4 12.88C4.68 12.9 4.92 12.73 5.01 12.47C5.09 12.21 4.99 11.92 4.76 11.78C3.33 10.82 2.39 9.2 2.39 7.35C2.39 6.67 2.57 6.04 2.81 5.44C5.81 8.73 10.01 10.92 14.75 11.16C14.94 11.17 15.12 11.09 15.24 10.95C15.37 10.8 15.41 10.61 15.37 10.43C15.28 10.04 15.22 9.63 15.22 9.21C15.22 6.27 17.59 3.9 20.53 3.9Z" fill="#FFFFFF" fill-opacity="1.000000" fill-rule="nonzero"/>
	</g>
</svg>
