<svg width="34.000000" height="34.000000" viewBox="0 0 34 34" fill="none" xmlns="http://www.w3.org/2000/svg" xmlns:xlink="http://www.w3.org/1999/xlink">
	<desc>
			Created with Pixso.
	</desc>
	<defs>
		<clipPath id="clip1_1287">
			<rect id="icons8-youtube 1" width="34.000000" height="34.000000" transform="translate(-0.000061 -0.572754) rotate(0.000000)" fill="white" fill-opacity="0"/>
		</clipPath>
	</defs>
	<rect id="icons8-youtube 1" width="34.000000" height="34.000000" transform="translate(-0.000061 -0.572754) rotate(0.000000)" fill="#FFFFFF" fill-opacity="0"/>
	<g clip-path="url(#clip1_1287)">
		<path id="Vector" d="M16.59 5.54C12.1 5.54 7.88 5.88 5.64 6.36C4.14 6.7 2.85 7.72 2.58 9.28C2.31 10.91 2.03 13.36 2.03 16.42C2.03 19.48 2.31 21.86 2.65 23.56C2.92 25.06 4.21 26.15 5.71 26.49C8.09 26.96 12.17 27.3 16.65 27.3C21.14 27.3 25.22 26.96 27.6 26.49C29.1 26.15 30.39 25.13 30.66 23.56C30.93 21.86 31.27 19.42 31.34 16.36C31.34 13.3 31 10.85 30.66 9.15C30.39 7.65 29.1 6.56 27.6 6.22C25.22 5.88 21.07 5.54 16.59 5.54ZM16.59 6.9C21.48 6.9 25.43 7.31 27.33 7.65C28.35 7.92 29.17 8.6 29.3 9.49C29.71 11.66 29.98 13.98 29.98 16.36C29.91 19.28 29.57 21.66 29.3 23.36C29.1 24.65 27.74 25.06 27.33 25.2C24.88 25.67 20.8 26.01 16.72 26.01C12.64 26.01 8.49 25.74 6.11 25.2C5.09 24.92 4.28 24.24 4.14 23.36C3.6 21.45 3.39 18.94 3.39 16.42C3.39 13.29 3.67 10.98 3.94 9.56C4.14 8.26 5.57 7.85 5.91 7.72C8.15 7.24 12.3 6.9 16.59 6.9ZM12.91 10.98L12.91 21.86L22.43 16.42L12.91 10.98ZM14.27 13.3L19.71 16.42L14.27 19.55L14.27 13.3Z" fill="#FFFFFF" fill-opacity="1.000000" fill-rule="nonzero"/>
	</g>
</svg>
